<svg width="16" height="17" viewBox="0 0 16 17" fill="none" xmlns="http://www.w3.org/2000/svg">
<g clip-path="url(#clip0_206:152)">
<path d="M14.6666 7.86282V8.4743C14.6658 9.90758 14.2003 11.3022 13.3395 12.4501C12.4788 13.5981 11.2688 14.4379 9.89022 14.8443C8.5116 15.2507 7.03815 15.2019 5.68963 14.7051C4.3411 14.2084 3.18975 13.2904 2.40729 12.0881C1.62482 10.8857 1.25317 9.46335 1.34776 8.03318C1.44235 6.60302 1.99812 5.24165 2.93217 4.15212C3.86621 3.06258 5.1285 2.30326 6.53077 1.98739C7.93304 1.67153 9.40016 1.81604 10.7133 2.39938" stroke="#1E821C" stroke-width="2" stroke-linecap="round" stroke-linejoin="round"/>
<path d="M14.6667 3.1571L8 9.81028L6 7.81632" stroke="#1E821C" stroke-width="2" stroke-linecap="round" stroke-linejoin="round"/>
</g>
<defs>
<clipPath id="clip0_206:152">
<rect width="16" height="15.9517" fill="white" transform="translate(0 0.498474)"/>
</clipPath>
</defs>
</svg>
